<mxfile host="app.diagrams.net" agent="Mozilla/5.0 (Windows NT 10.0; Win64; x64) AppleWebKit/537.36 (KHTML, like Gecko) Chrome/132.0.0.0 Safari/537.36 Edg/132.0.0.0" version="26.0.10">
  <diagram name="Page-1" id="KHlywxqe0l7YPdMggzVy">
    <mxGraphModel dx="976" dy="418" grid="1" gridSize="10" guides="1" tooltips="1" connect="1" arrows="1" fold="1" page="1" pageScale="1" pageWidth="850" pageHeight="1100" math="0" shadow="0">
      <root>
        <mxCell id="0" />
        <mxCell id="1" parent="0" />
        <mxCell id="8ZU9fBQnD9LsVRf3pyuk-1" value="&lt;p style=&quot;margin:0px;margin-top:4px;text-align:center;&quot;&gt;&lt;b&gt;Hệ thống&lt;/b&gt;&lt;/p&gt;&lt;hr size=&quot;1&quot; style=&quot;border-style:solid;&quot;&gt;&lt;div style=&quot;height:2px;&quot;&gt;&lt;/div&gt;" style="verticalAlign=top;align=left;overflow=fill;html=1;whiteSpace=wrap;" parent="1" vertex="1">
          <mxGeometry x="260" width="380" height="360" as="geometry" />
        </mxCell>
        <mxCell id="8ZU9fBQnD9LsVRf3pyuk-2" value="&lt;p style=&quot;margin:0px;margin-top:4px;text-align:center;&quot;&gt;&lt;b&gt;Người dùng&lt;/b&gt;&lt;/p&gt;&lt;hr size=&quot;1&quot; style=&quot;border-style:solid;&quot;&gt;&lt;div style=&quot;height:2px;&quot;&gt;&lt;/div&gt;" style="verticalAlign=top;align=left;overflow=fill;html=1;whiteSpace=wrap;" parent="1" vertex="1">
          <mxGeometry width="260" height="360" as="geometry" />
        </mxCell>
        <mxCell id="8ZU9fBQnD9LsVRf3pyuk-3" value="" style="ellipse;html=1;shape=startState;fillColor=#000000;strokeColor=#FF0500;" parent="1" vertex="1">
          <mxGeometry x="20" y="45" width="30" height="30" as="geometry" />
        </mxCell>
        <mxCell id="8ZU9fBQnD9LsVRf3pyuk-4" value="" style="edgeStyle=orthogonalEdgeStyle;rounded=0;orthogonalLoop=1;jettySize=auto;html=1;strokeColor=#FF0500;" parent="1" source="8ZU9fBQnD9LsVRf3pyuk-3" target="8ZU9fBQnD9LsVRf3pyuk-6" edge="1">
          <mxGeometry relative="1" as="geometry" />
        </mxCell>
        <mxCell id="8ZU9fBQnD9LsVRf3pyuk-5" value="" style="edgeStyle=orthogonalEdgeStyle;rounded=0;orthogonalLoop=1;jettySize=auto;html=1;strokeColor=#FF0500;" parent="1" source="8ZU9fBQnD9LsVRf3pyuk-6" edge="1">
          <mxGeometry relative="1" as="geometry">
            <mxPoint x="300" y="60" as="targetPoint" />
          </mxGeometry>
        </mxCell>
        <mxCell id="8ZU9fBQnD9LsVRf3pyuk-6" value="Xóa suất chiếu" style="rounded=1;whiteSpace=wrap;html=1;arcSize=40;fontColor=#000000;fillColor=#ffffc0;strokeColor=#FF0500;" parent="1" vertex="1">
          <mxGeometry x="100" y="40" width="120" height="40" as="geometry" />
        </mxCell>
        <mxCell id="8ZU9fBQnD9LsVRf3pyuk-7" style="edgeStyle=orthogonalEdgeStyle;rounded=0;orthogonalLoop=1;jettySize=auto;html=1;entryX=0.5;entryY=0;entryDx=0;entryDy=0;strokeColor=#FF0500;" parent="1" target="8ZU9fBQnD9LsVRf3pyuk-9" edge="1">
          <mxGeometry relative="1" as="geometry">
            <Array as="points">
              <mxPoint x="360" y="100" />
              <mxPoint x="160" y="100" />
            </Array>
            <mxPoint x="360" y="80" as="sourcePoint" />
          </mxGeometry>
        </mxCell>
        <mxCell id="8ZU9fBQnD9LsVRf3pyuk-8" style="edgeStyle=orthogonalEdgeStyle;rounded=0;orthogonalLoop=1;jettySize=auto;html=1;entryX=0.5;entryY=0;entryDx=0;entryDy=0;strokeColor=#FF0500;" parent="1" source="8ZU9fBQnD9LsVRf3pyuk-9" target="8ZU9fBQnD9LsVRf3pyuk-13" edge="1">
          <mxGeometry relative="1" as="geometry" />
        </mxCell>
        <mxCell id="8ZU9fBQnD9LsVRf3pyuk-9" value="Chọn suất chiếu" style="rounded=1;whiteSpace=wrap;html=1;arcSize=40;fontColor=#000000;fillColor=#ffffc0;strokeColor=#FF0500;" parent="1" vertex="1">
          <mxGeometry x="100" y="120" width="120" height="40" as="geometry" />
        </mxCell>
        <mxCell id="8ZU9fBQnD9LsVRf3pyuk-10" value="Hiển thị danh sách suất chiếu" style="rounded=1;whiteSpace=wrap;html=1;arcSize=40;fontColor=#000000;fillColor=#ffffc0;strokeColor=#ff0000;" parent="1" vertex="1">
          <mxGeometry x="300" y="40" width="120" height="40" as="geometry" />
        </mxCell>
        <mxCell id="8ZU9fBQnD9LsVRf3pyuk-11" value="" style="edgeStyle=orthogonalEdgeStyle;rounded=0;orthogonalLoop=1;jettySize=auto;html=1;strokeColor=#FF0500;" parent="1" source="8ZU9fBQnD9LsVRf3pyuk-13" target="8ZU9fBQnD9LsVRf3pyuk-15" edge="1">
          <mxGeometry relative="1" as="geometry" />
        </mxCell>
        <mxCell id="8ZU9fBQnD9LsVRf3pyuk-12" value="" style="edgeStyle=orthogonalEdgeStyle;rounded=0;orthogonalLoop=1;jettySize=auto;html=1;strokeColor=#FF0500;" parent="1" source="8ZU9fBQnD9LsVRf3pyuk-13" target="8ZU9fBQnD9LsVRf3pyuk-19" edge="1">
          <mxGeometry relative="1" as="geometry" />
        </mxCell>
        <mxCell id="8ZU9fBQnD9LsVRf3pyuk-13" value="Xác nhận xóa&lt;br&gt;&lt;div&gt;suất chiếu&lt;/div&gt;" style="rhombus;whiteSpace=wrap;html=1;fontColor=#000000;fillColor=#ffffc0;strokeColor=#FF0500;" parent="1" vertex="1">
          <mxGeometry x="300" y="160" width="120" height="80" as="geometry" />
        </mxCell>
        <mxCell id="8ZU9fBQnD9LsVRf3pyuk-14" value="" style="edgeStyle=orthogonalEdgeStyle;rounded=0;orthogonalLoop=1;jettySize=auto;html=1;strokeColor=#FF0500;" parent="1" source="8ZU9fBQnD9LsVRf3pyuk-15" target="8ZU9fBQnD9LsVRf3pyuk-18" edge="1">
          <mxGeometry relative="1" as="geometry" />
        </mxCell>
        <mxCell id="8ZU9fBQnD9LsVRf3pyuk-15" value="Xóa suất chiếu khỏi CSDL" style="rounded=1;whiteSpace=wrap;html=1;arcSize=40;fontColor=#000000;fillColor=#ffffc0;strokeColor=#FF0500;" parent="1" vertex="1">
          <mxGeometry x="300" y="280" width="120" height="40" as="geometry" />
        </mxCell>
        <mxCell id="8ZU9fBQnD9LsVRf3pyuk-16" value="" style="edgeStyle=orthogonalEdgeStyle;rounded=0;orthogonalLoop=1;jettySize=auto;html=1;strokeColor=#FF0500;" parent="1" source="8ZU9fBQnD9LsVRf3pyuk-18" target="8ZU9fBQnD9LsVRf3pyuk-19" edge="1">
          <mxGeometry relative="1" as="geometry" />
        </mxCell>
        <mxCell id="8ZU9fBQnD9LsVRf3pyuk-17" style="edgeStyle=orthogonalEdgeStyle;rounded=0;orthogonalLoop=1;jettySize=auto;html=1;entryX=1;entryY=0.5;entryDx=0;entryDy=0;strokeColor=#FF0500;" parent="1" source="8ZU9fBQnD9LsVRf3pyuk-18" target="8ZU9fBQnD9LsVRf3pyuk-10" edge="1">
          <mxGeometry relative="1" as="geometry">
            <Array as="points">
              <mxPoint x="620" y="300" />
              <mxPoint x="620" y="60" />
            </Array>
            <mxPoint x="580" y="60" as="targetPoint" />
          </mxGeometry>
        </mxCell>
        <mxCell id="8ZU9fBQnD9LsVRf3pyuk-18" value="Xóa&lt;br&gt;suất chiếu&lt;br&gt;khác" style="rhombus;whiteSpace=wrap;html=1;fontColor=#000000;fillColor=#ffffc0;strokeColor=#FF0500;" parent="1" vertex="1">
          <mxGeometry x="460" y="260" width="120" height="80" as="geometry" />
        </mxCell>
        <mxCell id="8ZU9fBQnD9LsVRf3pyuk-19" value="" style="ellipse;html=1;shape=endState;fillColor=#000000;strokeColor=#ff0000;" parent="1" vertex="1">
          <mxGeometry x="505" y="185" width="30" height="30" as="geometry" />
        </mxCell>
        <mxCell id="8ZU9fBQnD9LsVRf3pyuk-20" value="Đúng" style="text;html=1;align=center;verticalAlign=middle;whiteSpace=wrap;rounded=0;fontFamily=Helvetica;fontSize=12;fontColor=#000000;" parent="1" vertex="1">
          <mxGeometry x="350" y="230" width="60" height="30" as="geometry" />
        </mxCell>
        <mxCell id="8ZU9fBQnD9LsVRf3pyuk-21" value="Đúng" style="text;html=1;align=center;verticalAlign=middle;whiteSpace=wrap;rounded=0;fontFamily=Helvetica;fontSize=12;fontColor=#000000;" parent="1" vertex="1">
          <mxGeometry x="560" y="270" width="60" height="30" as="geometry" />
        </mxCell>
        <mxCell id="8ZU9fBQnD9LsVRf3pyuk-22" value="Sai" style="text;html=1;align=center;verticalAlign=middle;resizable=0;points=[];autosize=1;strokeColor=none;fillColor=none;" parent="1" vertex="1">
          <mxGeometry x="410" y="170" width="40" height="30" as="geometry" />
        </mxCell>
        <mxCell id="8ZU9fBQnD9LsVRf3pyuk-23" value="Sai" style="text;html=1;align=center;verticalAlign=middle;resizable=0;points=[];autosize=1;strokeColor=none;fillColor=none;" parent="1" vertex="1">
          <mxGeometry x="480" y="240" width="40" height="30" as="geometry" />
        </mxCell>
      </root>
    </mxGraphModel>
  </diagram>
</mxfile>
